<?xml version="1.0" encoding="UTF-8" standalone="no"?>
<svg xmlns="http://www.w3.org/2000/svg" width="17" height="16" viewBox="0 0 17 16" fill="none">
  <path
    d="M8.7041 6.54541V9.6436H13.0974C12.9045 10.64 12.3256 11.4836 11.4573 12.0509L14.1067 14.0655C15.6502 12.6691 16.5408 10.6182 16.5408 8.18185C16.5408 7.61459 16.4889 7.06909 16.3924 6.5455L8.7041 6.54541Z"
    fill="#4285F4" />
  <path
    d="M4.12958 9.52271L3.53206 9.97096L1.41699 11.5855C2.76022 14.1964 5.51326 16 8.70433 16C10.9084 16 12.7562 15.2873 14.1069 14.0655L11.4575 12.0509C10.7303 12.5309 9.80261 12.8219 8.70433 12.8219C6.58189 12.8219 4.77861 11.4183 4.13292 9.52732L4.12958 9.52271Z"
    fill="#34A853" />
  <path
    d="M1.41665 4.41455C0.860092 5.49087 0.541016 6.70543 0.541016 7.99996C0.541016 9.29448 0.860092 10.509 1.41665 11.5854C1.41665 11.5926 4.13284 9.51991 4.13284 9.51991C3.96957 9.03991 3.87307 8.53085 3.87307 7.99987C3.87307 7.46889 3.96957 6.95984 4.13284 6.47984L1.41665 4.41455Z"
    fill="#FBBC05" />
  <path
    d="M8.7045 3.18545C9.90674 3.18545 10.9754 3.59271 11.8288 4.37818L14.1664 2.0873C12.749 0.792777 10.9086 0 8.7045 0C5.51343 0 2.76022 1.79636 1.41699 4.41455L4.1331 6.48001C4.7787 4.58908 6.58206 3.18545 8.7045 3.18545Z"
    fill="#EA4335" />
</svg>