<svg width="1006" height="250" viewBox="0 0 1006 250" fill="none" xmlns="http://www.w3.org/2000/svg">
<rect x="165.5" y="23" width="28" height="28" rx="14" fill="#55B0ED"/>
<path d="M77.169 50.75C74.9205 50.75 72.7209 51.4069 70.8405 52.6399L64.505 56.7943C54.6728 63.2416 48.75 74.2081 48.75 85.9656C48.75 97.7232 54.6728 108.69 64.505 115.137L70.8405 119.291C72.7209 120.524 74.9204 121.181 77.169 121.181C88.0661 121.181 92.8923 107.469 84.3974 100.644L66.3802 86.1677C66.3189 86.1185 66.2833 86.0442 66.2833 85.9656C66.2833 85.8871 66.3189 85.8128 66.3802 85.7636L84.3974 71.2874C92.8923 64.4622 88.0661 50.75 77.169 50.75ZM137.255 50.75C126.358 50.75 121.531 64.4622 130.026 71.2874L148.044 85.7636C148.105 85.8128 148.14 85.8871 148.14 85.9656C148.14 86.0442 148.105 86.1185 148.044 86.1677L130.026 100.644C121.531 107.469 126.358 121.181 137.255 121.181C139.503 121.181 141.703 120.524 143.583 119.291L149.919 115.137C159.751 108.69 165.674 97.7232 165.674 85.9656C165.674 74.2081 159.751 63.2416 149.919 56.7943L143.583 52.6399C141.703 51.4069 139.503 50.75 137.255 50.75ZM77.169 130.819C74.9205 130.819 72.7209 131.476 70.8405 132.709L64.505 136.863C54.6728 143.31 48.75 154.277 48.75 166.034C48.75 177.792 54.6728 188.758 64.505 195.206L70.8405 199.36C72.7209 200.593 74.9204 201.25 77.169 201.25C88.0661 201.25 92.8923 187.538 84.3974 180.713L66.3802 166.236C66.3189 166.187 66.2833 166.113 66.2833 166.034C66.2833 165.956 66.3189 165.881 66.3802 165.832L84.3974 151.356C92.8923 144.531 88.0661 130.819 77.169 130.819ZM137.255 130.819C126.358 130.819 121.531 144.531 130.026 151.356L148.044 165.832C148.105 165.881 148.14 165.956 148.14 166.034C148.14 166.113 148.105 166.187 148.044 166.236L130.026 180.713C121.531 187.538 126.358 201.25 137.255 201.25C139.503 201.25 141.703 200.593 143.583 199.36L149.919 195.206C159.751 188.758 165.674 177.792 165.674 166.034C165.674 154.277 159.751 143.31 149.919 136.863L143.583 132.709C141.703 131.476 139.503 130.819 137.255 130.819Z" fill="#242424" stroke="#242424" stroke-width="0.5"/>
<path d="M936.071 156.142V171.812V171.962H936.221H956.186H956.354L956.336 171.795C955.569 165.046 955.415 158.142 955.415 151.846V62V61.85H955.265H936.221H936.071V62V103.494C930.14 92.8381 919.187 85.9626 906.886 85.9626C894.945 85.9626 884.997 90.3552 878.035 98.0684C871.076 105.78 867.112 116.8 867.112 130.038C867.112 143.275 871.076 154.295 878.035 162.007C884.997 169.72 894.945 174.112 906.886 174.112C919.49 174.112 930.15 167.236 936.071 156.142ZM911.801 159.068C904.549 159.068 898.487 156.131 894.235 151.04C889.981 145.946 887.531 138.688 887.531 130.038C887.531 121.387 889.981 114.129 894.235 109.035C898.487 103.944 904.549 101.007 911.801 101.007C925.071 101.007 936.071 112.603 936.071 126.966V133.109C936.071 147.015 925.528 159.068 911.801 159.068Z" fill="#242424" stroke="#242424" stroke-width="0.3"/>
<path d="M774.094 171.812V171.962H774.244H793.288H793.438V171.812V134.03C793.438 113.982 808.126 101.16 820.933 101.16C826.82 101.16 831.036 102.765 833.782 105.701C836.531 108.639 837.831 112.934 837.831 118.365V171.812V171.962H837.981H857.793H857.958L857.943 171.798C857.329 165.045 857.022 158.138 857.022 151.846V114.986C857.022 107.048 854.71 99.7907 849.879 94.5157C845.047 89.2384 837.708 85.9623 827.691 85.9623C812.96 85.9623 799.586 95.5277 793.438 110.082V88.2625V88.1125H793.288H774.244H774.094V88.2625V171.812Z" fill="#242424" stroke="#242424" stroke-width="0.3"/>
<path d="M736.958 154.49V155.379C736.958 161.472 738.656 166.16 741.684 169.324C744.713 172.489 749.057 174.112 754.31 174.112C758.009 174.112 762.898 173.343 765.995 171.949L766.085 171.908L766.083 171.809L765.825 159.215L765.82 158.984L765.611 159.082C765.276 159.24 764.98 159.382 764.713 159.51C763.934 159.883 763.408 160.136 762.901 160.304C762.232 160.528 761.598 160.604 760.453 160.604C759.028 160.604 758.002 160.156 757.326 159.298C756.646 158.434 756.303 157.129 756.303 155.379V115.908C756.303 107.049 753.837 99.5565 748.405 94.279C742.974 89.0021 734.599 85.9623 722.825 85.9623C705.58 85.9623 689.716 93.0469 678.321 107.675L678.231 107.791L678.345 107.884L691.553 118.635L691.688 118.745L691.777 118.594C698.971 106.35 709.982 100.392 721.136 100.392C726.635 100.392 730.583 101.995 733.158 104.797C735.735 107.602 736.958 111.63 736.958 116.522V117.306C718.89 118.848 704.17 122.303 693.956 127.871C683.711 133.456 677.982 141.178 677.982 151.232C677.982 157.877 680.572 163.602 685.272 167.664C689.97 171.723 696.765 174.112 705.163 174.112C720.477 174.112 731.322 165.761 736.958 154.49ZM710.385 159.068C706.725 159.068 703.65 158.077 701.494 156.337C699.341 154.599 698.094 152.108 698.094 149.082C698.094 143.637 701.603 139.569 708.258 136.567C714.886 133.577 724.6 131.662 736.958 130.509V133.416C736.958 148.984 723.833 159.068 710.385 159.068Z" fill="#242424" stroke="#242424" stroke-width="0.3"/>
<path d="M602.195 171.962H602.345V171.812V156.581C608.275 167.237 619.228 174.112 631.529 174.112C643.471 174.112 653.419 169.72 660.38 162.007C667.34 154.295 671.304 143.275 671.304 130.038C671.304 116.8 667.34 105.78 660.38 98.0684C653.419 90.3552 643.471 85.9626 631.529 85.9626C618.925 85.9626 608.265 92.8387 602.345 103.933V62V61.85H602.195H583.15H583V62V171.812V171.962H583.15H602.195ZM626.615 159.068C613.344 159.068 602.345 147.472 602.345 133.109V126.966C602.345 113.06 612.887 101.007 626.615 101.007C633.866 101.007 639.928 103.944 644.181 109.035C648.435 114.129 650.884 121.387 650.884 130.038C650.884 138.688 648.435 145.946 644.181 151.04C639.928 156.131 633.866 159.068 626.615 159.068Z" fill="#242424" stroke="#242424" stroke-width="0.3"/>
<path d="M514.093 171.962H514.243V171.812V134.184C514.243 124.684 516.542 116.653 520.399 111.001C524.254 105.351 529.664 102.081 535.902 102.081C540.248 102.081 543.58 103.377 545.828 106.003C548.081 108.634 549.267 112.624 549.267 118.058V171.812V171.962H549.417H569.23H569.398L569.379 171.795C568.612 165.046 568.458 158.141 568.458 151.846V115.293C568.458 107.365 566.727 100.033 562.591 94.6789C558.449 89.3187 551.913 85.9623 542.352 85.9623C529.394 85.9623 518.71 94.988 513.397 107.955C512.492 101.644 510.195 96.2106 506.211 92.3211C502.108 88.3146 496.232 85.9623 488.291 85.9623C475.411 85.9623 465.073 94.5833 460.028 107.127V88.2625V88.1125H459.878H440.834H440.684V88.2625V171.812V171.962H440.834H459.878H460.028V171.812V134.184C460.028 124.684 462.327 116.653 466.203 111.001C470.077 105.351 475.525 102.081 481.84 102.081C486.108 102.081 489.363 103.414 491.554 106.059C493.75 108.709 494.899 112.7 494.899 118.058V171.812V171.962H495.049H514.093Z" fill="#242424" stroke="#242424" stroke-width="0.3"/>
<path d="M406.331 88.1127H406.181V88.2627V126.044C406.181 146.092 391.494 158.915 378.533 158.915C372.795 158.915 368.617 157.538 365.872 154.812C363.127 152.086 361.788 147.985 361.788 142.478V88.2627V88.1127H361.638H342.594H342.444V88.2627V145.089C342.444 153.026 344.756 160.284 349.606 165.559C354.458 170.836 361.835 174.112 371.928 174.112C386.513 174.112 399.89 164.689 406.181 150.423V171.812V171.962H406.331H426.143H426.308L426.293 171.799C425.679 165.045 425.372 158.139 425.372 151.846V88.2627V88.1127H425.222H406.331Z" fill="#242424" stroke="#242424" stroke-width="0.3"/>
<path d="M316.567 100.12C317.841 100.261 319.113 100.393 320.256 100.393C324.501 100.393 328.488 99.3897 331.458 97.3131C334.432 95.233 336.377 92.0801 336.532 87.8078L336.536 87.6942L336.428 87.6595L321.07 82.7448L320.874 82.6822V82.8877C320.874 85.5591 320.339 88.0589 319.077 89.8865C317.82 91.7058 315.833 92.8742 312.884 92.8742C311.299 92.8742 309.822 92.45 308.239 91.8054C307.448 91.483 306.632 91.1066 305.763 90.7015C305.677 90.6613 305.59 90.6207 305.503 90.5799C304.712 90.2107 303.877 89.8209 302.98 89.431C298.992 87.6969 293.788 85.963 285.7 85.963C264.756 85.963 250.379 98.2927 250.379 115.14C250.379 124.776 254.926 132.898 262.812 138.152C253.576 142.29 247.461 147.821 247.461 155.072C247.461 160.737 250.93 165.035 255.904 167.674C249.257 171.658 244.85 176.727 244.85 183.485C244.85 190.929 249.198 196.08 255.548 199.361C261.892 202.639 270.25 204.062 278.328 204.062C290.789 204.062 304.752 201.024 315.606 195.039C326.458 189.055 334.229 180.106 334.229 168.28C334.229 161.556 331.637 156.634 327.373 153.397C323.115 150.165 317.205 148.625 310.58 148.625C302.96 148.625 296.343 149.972 290.198 151.316C289.774 151.409 289.352 151.502 288.931 151.594C283.267 152.84 277.988 154.001 272.645 154.001C270.348 154.001 268.187 153.732 266.606 152.96C265.817 152.575 265.178 152.067 264.735 151.41C264.293 150.754 264.041 149.939 264.041 148.929C264.041 145.806 266.105 143.549 269.735 141.72C274.5 143.555 279.873 144.471 285.7 144.471C306.645 144.471 321.02 131.987 321.02 115.14C321.02 109.545 319.391 104.393 316.567 100.12ZM281.092 189.632C276.419 189.632 271.915 188.942 268.585 187.267C265.263 185.597 263.119 182.955 263.119 179.031C263.119 175.726 264.459 173.013 266.71 170.591C267.617 170.734 268.522 170.734 269.414 170.734H269.42C274.056 170.734 279.771 169.286 285.634 167.8C285.822 167.753 286.009 167.705 286.197 167.658C292.268 166.121 298.469 164.591 303.823 164.591C307.105 164.591 309.681 165.316 311.432 166.615C313.177 167.91 314.116 169.785 314.116 172.12C314.116 177.406 309.847 181.783 303.546 184.848C297.253 187.908 288.983 189.632 281.092 189.632ZM285.7 132.038C280.671 132.038 276.681 130.173 273.947 127.135C271.211 124.095 269.723 119.87 269.723 115.14C269.723 110.41 271.211 106.225 273.946 103.223C276.68 100.224 280.67 98.3961 285.7 98.3961C290.652 98.3961 294.642 100.223 297.396 103.224C300.151 106.226 301.676 110.411 301.676 115.14C301.676 119.87 300.151 124.094 297.395 127.134C294.641 130.173 290.651 132.038 285.7 132.038Z" fill="#242424" stroke="#242424" stroke-width="0.3"/>
</svg>
