<svg width="120" height="120" viewBox="0 0 120 120" fill="none" xmlns="http://www.w3.org/2000/svg">
  <path
    d="M24.0174 80.7663C23.7772 80.9025 23.6928 81.2076 23.8289 81.4478C23.9651 81.6881 24.2702 81.7725 24.5104 81.6363L24.0174 80.7663ZM26.1428 80.7113C26.3831 80.5751 26.4675 80.27 26.3313 80.0298C26.1952 79.7895 25.89 79.7051 25.6498 79.8413L26.1428 80.7113ZM28.9146 77.9911C28.6743 78.1273 28.5899 78.4324 28.7261 78.6727C28.8622 78.9129 29.1674 78.9973 29.4076 78.8612L28.9146 77.9911ZM32.6724 77.0111C32.9126 76.8749 32.997 76.5698 32.8609 76.3295C32.7247 76.0893 32.4196 76.0049 32.1794 76.141L32.6724 77.0111ZM35.4441 74.2909C35.2039 74.4271 35.1195 74.7322 35.2556 74.9724C35.3918 75.2127 35.6969 75.2971 35.9372 75.1609L35.4441 74.2909ZM39.2019 73.3108C39.4422 73.1747 39.5266 72.8696 39.3904 72.6293C39.2543 72.3891 38.9492 72.3047 38.7089 72.4408L39.2019 73.3108ZM41.9737 70.5907C41.7335 70.7269 41.6491 71.032 41.7852 71.2722C41.9214 71.5125 42.2265 71.5969 42.4667 71.4607L41.9737 70.5907ZM45.7315 69.6106C45.9718 69.4745 46.0562 69.1693 45.92 68.9291C45.7839 68.6888 45.4787 68.6045 45.2385 68.7406L45.7315 69.6106ZM48.5033 66.8905C48.263 67.0266 48.1786 67.3318 48.3148 67.572C48.4509 67.8123 48.756 67.8966 48.9963 67.7605L48.5033 66.8905ZM52.2611 65.9104C52.5013 65.7742 52.5857 65.4691 52.4496 65.2289C52.3134 64.9886 52.0083 64.9042 51.768 65.0404L52.2611 65.9104ZM55.0328 63.1903C54.7926 63.3264 54.7082 63.6315 54.8443 63.8718C54.9805 64.112 55.2856 64.1964 55.5259 64.0603L55.0328 63.1903ZM58.7906 62.2102C59.0309 62.074 59.1153 61.7689 58.9791 61.5287C58.843 61.2884 58.5379 61.204 58.2976 61.3402L58.7906 62.2102ZM61.5624 59.4901C61.3221 59.6262 61.2378 59.9313 61.3739 60.1716C61.51 60.4118 61.8152 60.4962 62.0554 60.3601L61.5624 59.4901ZM24.5104 81.6363L26.1428 80.7113L25.6498 79.8413L24.0174 80.7663L24.5104 81.6363ZM29.4076 78.8612L32.6724 77.0111L32.1794 76.141L28.9146 77.9911L29.4076 78.8612ZM35.9372 75.1609L39.2019 73.3108L38.7089 72.4408L35.4441 74.2909L35.9372 75.1609ZM42.4667 71.4607L45.7315 69.6106L45.2385 68.7406L41.9737 70.5907L42.4667 71.4607ZM48.9963 67.7605L52.2611 65.9104L51.768 65.0404L48.5033 66.8905L48.9963 67.7605ZM55.5259 64.0603L58.7906 62.2102L58.2976 61.3402L55.0328 63.1903L55.5259 64.0603ZM62.0554 60.3601L63.6878 59.435L63.1948 58.565L61.5624 59.4901L62.0554 60.3601Z"
    fill="#DADEE3" />
  <path
    d="M63.3026 13.1122L23.6126 35.6522C23.3426 35.8055 23.3426 36.1945 23.6126 36.3478L62.9091 58.6644C62.9653 58.6963 63 58.7559 63 58.8205C63 58.9196 63.0804 59 63.1795 59H63.3956C63.4641 59 63.5314 58.9822 63.591 58.9484L103.388 36.3478C103.658 36.1945 103.658 35.8055 103.388 35.6522L63.6977 13.1122C63.5752 13.0426 63.4251 13.0426 63.3026 13.1122Z"
    fill="white" />
  <path
    d="M63 59.2L63.4418 58.9175L103.323 36.3175L103.762 36.3177L103.883 36.6563V80.7931L103.5 81.5001L102.966 82.3548L64.5183 104.142L63.4418 104V59.332L63 59.2Z"
    fill="#F4F6F9" />
  <path
    d="M25.0279 34.7686L61.9621 13.838C62.8796 13.3181 64.0027 13.3181 64.9203 13.838L101.855 34.7688C103.108 35.479 103.883 36.8083 103.883 38.2488V79.4821C103.883 80.9244 103.107 82.255 101.851 82.9646L65.4092 103.558C64.188 104.248 62.6945 104.248 61.4733 103.558L25.032 82.9646C23.7764 82.255 23 80.9244 23 79.4822V38.2487C23 36.8081 23.7746 35.4789 25.0279 34.7686Z"
    stroke="#DADEE3" stroke-linejoin="bevel" />
  <path d="M63.4412 103.753V61.2487C63.4412 59.8081 62.6666 58.4789 61.4133 57.7686L24.2638 36.7165L23.6319 36.3584"
    stroke="#DADEE3" stroke-linejoin="bevel" />
  <path
    d="M13 43.6331V87.4023C13 87.6184 13.1162 87.8178 13.3042 87.9244L51.9481 109.823C52.6148 110.201 53.4412 109.72 53.4412 108.953V67.1654C53.4412 65.7248 52.6666 64.3955 51.4133 63.6853L14.493 42.7631C13.8264 42.3853 13 42.8669 13 43.6331Z"
    stroke="#DADEE3" stroke-linecap="round" stroke-linejoin="bevel" stroke-dasharray="4 4" />
</svg>