<svg width="96" height="96" viewBox="0 0 96 96" fill="none" xmlns="http://www.w3.org/2000/svg">
<g opacity="0.96">
<g filter="url(#filter0_i_6763_27965)">
<g clip-path="url(#clip0_6763_27965)">
<g filter="url(#filter1_b_6763_27965)">
<rect x="6" y="6" width="84" height="84" fill="#535965" fill-opacity="0.7"/>
</g>
<rect x="6" y="6" width="84" height="14" fill="#656F7B"/>
<rect x="15" y="12" width="3" height="3" rx="1.5" fill="#DA8478"/>
<rect x="20" y="12" width="3" height="3" rx="1.5" fill="#E8D884"/>
<rect x="25" y="12" width="3" height="3" rx="1.5" fill="#7BE6A6"/>
<g filter="url(#filter2_d_6763_27965)">
<path d="M40.4961 58.6494L32 53.3638V51.3496L40.4961 45.8687V48.7495L34.1606 52.2529L40.4961 55.8662V58.6494Z" fill="#F4F6F9"/>
<path d="M50.9678 43L46.5 61.8232H44.3149L48.7949 43H50.9678Z" fill="#F4F6F9"/>
<path d="M63.5635 53.3638L55.043 58.6494V55.8784L61.3906 52.2651L55.043 48.7495V45.8687L63.5635 51.3496V53.3638Z" fill="#F4F6F9"/>
</g>
</g>
<rect x="6.5" y="6.5" width="83" height="83" rx="11.5" stroke="#748393"/>
</g>
</g>
<defs>
<filter id="filter0_i_6763_27965" x="6" y="6" width="90" height="90" filterUnits="userSpaceOnUse" color-interpolation-filters="sRGB">
<feFlood flood-opacity="0" result="BackgroundImageFix"/>
<feBlend mode="normal" in="SourceGraphic" in2="BackgroundImageFix" result="shape"/>
<feColorMatrix in="SourceAlpha" type="matrix" values="0 0 0 0 0 0 0 0 0 0 0 0 0 0 0 0 0 0 127 0" result="hardAlpha"/>
<feOffset dx="6" dy="6"/>
<feGaussianBlur stdDeviation="5"/>
<feComposite in2="hardAlpha" operator="arithmetic" k2="-1" k3="1"/>
<feColorMatrix type="matrix" values="0 0 0 0 0.517647 0 0 0 0 0.917647 0 0 0 0 0.629647 0 0 0 0.1 0"/>
<feBlend mode="normal" in2="shape" result="effect1_innerShadow_6763_27965"/>
</filter>
<filter id="filter1_b_6763_27965" x="5" y="5" width="86" height="86" filterUnits="userSpaceOnUse" color-interpolation-filters="sRGB">
<feFlood flood-opacity="0" result="BackgroundImageFix"/>
<feGaussianBlur in="BackgroundImageFix" stdDeviation="0.5"/>
<feComposite in2="SourceAlpha" operator="in" result="effect1_backgroundBlur_6763_27965"/>
<feBlend mode="normal" in="SourceGraphic" in2="effect1_backgroundBlur_6763_27965" result="shape"/>
</filter>
<filter id="filter2_d_6763_27965" x="20" y="31" width="55.5635" height="42.8232" filterUnits="userSpaceOnUse" color-interpolation-filters="sRGB">
<feFlood flood-opacity="0" result="BackgroundImageFix"/>
<feColorMatrix in="SourceAlpha" type="matrix" values="0 0 0 0 0 0 0 0 0 0 0 0 0 0 0 0 0 0 127 0" result="hardAlpha"/>
<feOffset/>
<feGaussianBlur stdDeviation="6"/>
<feComposite in2="hardAlpha" operator="out"/>
<feColorMatrix type="matrix" values="0 0 0 0 0.517647 0 0 0 0 0.917647 0 0 0 0 0.678431 0 0 0 0.1 0"/>
<feBlend mode="normal" in2="BackgroundImageFix" result="effect1_dropShadow_6763_27965"/>
<feBlend mode="normal" in="SourceGraphic" in2="effect1_dropShadow_6763_27965" result="shape"/>
</filter>
<clipPath id="clip0_6763_27965">
<rect x="6" y="6" width="84" height="84" rx="12" fill="white"/>
</clipPath>
</defs>
</svg>
