<svg width="120" height="120" viewBox="0 0 120 120" fill="none" xmlns="http://www.w3.org/2000/svg">
  <path 
    d="M57 67.1431L32 81.4288L57 95.7145L82 81.4288L57 67.1431Z" fill="white"/>
  <path 
    d="M57 38.5718L32 52.8575L57 67.1432L82 52.8575L57 38.5718Z" fill="white"/>
  <path 
    d="M32 52.8574V81.4289L57 95.7146V67.1431L32 52.8574Z" fill="#EBEEF2"/>
  <path 
    d="M82 52.8574V81.4289L57 95.7146V67.1431L82 52.8574Z" fill="#F4F6F9"/>
  <path 
    fill-rule="evenodd" clip-rule="evenodd" d="M58.2403 39.8567C57.4718 39.4175 56.5282 39.4175 55.7597 39.8567L33.7597 52.4282C32.9807 52.8733 32.5 53.7016 32.5 54.5988V79.6883C32.5 80.5854 32.9807 81.4138 33.7597 81.8589L55.7597 94.4303C56.5282 94.8695 57.4718 94.8695 58.2403 94.4303L80.2403 81.8589C81.0193 81.4138 81.5 80.5854 81.5 79.6883V54.5988C81.5 53.7016 81.0193 52.8733 80.2403 52.4282L58.2403 39.8567ZM55.2635 38.9885C56.3395 38.3736 57.6605 38.3736 58.7365 38.9885L80.7365 51.5599C81.827 52.1831 82.5 53.3428 82.5 54.5988V79.6883C82.5 80.9443 81.827 82.104 80.7365 82.7271L58.7365 95.2985C57.6605 95.9134 56.3395 95.9134 55.2635 95.2985L33.2635 82.7271C32.173 82.104 31.5 80.9443 31.5 79.6883V54.5988C31.5 53.3428 32.173 52.1831 33.2635 51.5599L55.2635 38.9885Z" fill="#DADEE3"/>
  <path 
    d="M57 9.85718L32 24.1429L57 38.4286L82 24.1429L57 9.85718Z" fill="white"/>
  <path 
    d="M57 38.4287L32 52.7144L57 67.0001L82 52.7144L57 38.4287Z" fill="white"/>
  <path 
    d="M32 24.1431V52.7145L57 67.0002V38.4288L32 24.1431Z" fill="#EBEEF2"/>
  <path 
    d="M82 24.1431V52.7145L57 67.0002V38.4288L82 24.1431Z" fill="#F4F6F9"/>
  <path 
    fill-rule="evenodd" clip-rule="evenodd" d="M58.2403 11.1419C57.4718 10.7027 56.5282 10.7027 55.7597 11.1419L33.7597 23.7133C32.9807 24.1584 32.5 24.9868 32.5 25.8839V50.9734C32.5 51.8706 32.9807 52.6989 33.7597 53.144L57 66.4242L80.2403 53.144C81.0193 52.6989 81.5 51.8706 81.5 50.9734V25.8839C81.5 24.9868 81.0193 24.1584 80.2403 23.7133L58.2403 11.1419ZM55.2635 10.2736C56.3395 9.65878 57.6605 9.65878 58.7365 10.2736L80.7365 22.8451C81.827 23.4682 82.5 24.6279 82.5 25.8839V50.9734C82.5 52.2294 81.827 53.3891 80.7365 54.0123L57.2481 67.4342H56.7519L33.2635 54.0123C32.173 53.3891 31.5 52.2294 31.5 50.9734V25.8839C31.5 24.6279 32.173 23.4682 33.2635 22.8451L55.2635 10.2736Z" fill="#DADEE3"/>
  <path 
    fill-rule="evenodd" clip-rule="evenodd" d="M32.2481 82.1465C32.0944 82.0587 31.9056 82.0587 31.7519 82.1465L29.8366 83.241C29.5968 83.378 29.2914 83.2947 29.1544 83.055C29.0174 82.8152 29.1007 82.5098 29.3404 82.3728L31.2558 81.2783C31.7169 81.0148 32.2831 81.0148 32.7442 81.2783L34.6596 82.3728C34.8993 82.5098 34.9826 82.8152 34.8456 83.055C34.7086 83.2947 34.4032 83.378 34.1634 83.241L32.2481 82.1465ZM26.1919 84.7478C26.3289 84.9876 26.2456 85.293 26.0058 85.43L22.1751 87.619C21.9353 87.756 21.6299 87.6727 21.4929 87.433C21.3559 87.1932 21.4392 86.8878 21.6789 86.7508L25.5097 84.5618C25.7494 84.4248 26.0549 84.5081 26.1919 84.7478ZM18.5304 89.1258C18.6674 89.3656 18.5841 89.671 18.3443 89.808L14.5136 91.997C14.2738 92.134 13.9684 92.0507 13.8314 91.8109C13.6944 91.5712 13.7777 91.2658 14.0175 91.1288L17.8482 88.9398C18.088 88.8028 18.3934 88.8861 18.5304 89.1258ZM53.1311 93.5038C53.2681 93.264 53.5735 93.1807 53.8133 93.3178L55.7286 94.4122C56.7364 94.9881 56.7364 96.4411 55.7286 97.017L53.8133 98.1115C53.5735 98.2485 53.2681 98.1652 53.1311 97.9254C52.9941 97.6857 53.0774 97.3802 53.3171 97.2432L55.2325 96.1487C55.5684 95.9568 55.5684 95.4724 55.2325 95.2805L53.3171 94.186C53.0774 94.049 52.9941 93.7436 53.1311 93.5038ZM10.8689 93.5038C11.0059 93.7436 10.9226 94.049 10.6829 94.186L8.76749 95.2805C8.43159 95.4724 8.43159 95.9568 8.7675 96.1487L10.6829 97.2432C10.9226 97.3802 11.0059 97.6857 10.8689 97.9254C10.7319 98.1652 10.4265 98.2485 10.1867 98.1115L8.27136 97.017C7.26364 96.4411 7.26363 94.9881 8.27136 94.4122L10.1867 93.3178C10.4265 93.1807 10.7319 93.264 10.8689 93.5038ZM50.1686 99.6183C50.3056 99.858 50.2223 100.163 49.9825 100.3L46.1518 102.489C45.912 102.626 45.6066 102.543 45.4696 102.303C45.3326 102.064 45.4159 101.758 45.6557 101.621L49.4864 99.4322C49.7262 99.2952 50.0316 99.3785 50.1686 99.6183ZM13.8314 99.6183C13.9684 99.3785 14.2738 99.2952 14.5136 99.4322L18.3443 101.621C18.5841 101.758 18.6674 102.064 18.5304 102.303C18.3934 102.543 18.088 102.626 17.8482 102.489L14.0175 100.3C13.7777 100.163 13.6944 99.858 13.8314 99.6183ZM42.5071 103.996C42.6441 104.236 42.5608 104.541 42.3211 104.678L38.4903 106.867C38.2506 107.004 37.9451 106.921 37.8081 106.681C37.6711 106.442 37.7544 106.136 37.9942 105.999L41.8249 103.81C42.0647 103.673 42.3701 103.757 42.5071 103.996ZM21.4929 103.996C21.6299 103.757 21.9353 103.673 22.1751 103.81L26.0058 105.999C26.2456 106.136 26.3289 106.442 26.1919 106.681C26.0549 106.921 25.7494 107.004 25.5097 106.867L21.6789 104.678C21.4392 104.541 21.3559 104.236 21.4929 103.996ZM29.1544 108.374C29.2914 108.134 29.5968 108.051 29.8366 108.188L31.7519 109.283C31.9056 109.371 32.0944 109.371 32.2481 109.283L34.1634 108.188C34.4032 108.051 34.7086 108.134 34.8456 108.374C34.9826 108.614 34.8993 108.919 34.6596 109.056L32.7442 110.151C32.2831 110.414 31.7169 110.414 31.2558 110.151L29.3404 109.056C29.1007 108.919 29.0174 108.614 29.1544 108.374Z" fill="#DADEE3"/>
  <path 
    fill-rule="evenodd" clip-rule="evenodd" d="M32 80.9289C31.7239 80.9289 31.5 81.1528 31.5 81.4289V83.2146C31.5 83.4908 31.7239 83.7146 32 83.7146C32.2761 83.7146 32.5 83.4908 32.5 83.2146V81.4289C32.5 81.1528 32.2761 80.9289 32 80.9289ZM32 86.286C31.7239 86.286 31.5 86.5099 31.5 86.786V90.3575C31.5 90.6336 31.7239 90.8575 32 90.8575C32.2761 90.8575 32.5 90.6336 32.5 90.3575V86.786C32.5 86.5099 32.2761 86.286 32 86.286ZM32 93.4289C31.7239 93.4289 31.5 93.6528 31.5 93.9289V97.5003C31.5 97.7765 31.7239 98.0003 32 98.0003C32.2761 98.0003 32.5 97.7765 32.5 97.5003V93.9289C32.5 93.6528 32.2761 93.4289 32 93.4289ZM32 100.572C31.7239 100.572 31.5 100.796 31.5 101.072V104.643C31.5 104.919 31.7239 105.143 32 105.143C32.2761 105.143 32.5 104.919 32.5 104.643V101.072C32.5 100.796 32.2761 100.572 32 100.572ZM32 107.715C31.7239 107.715 31.5 107.938 31.5 108.215V110H32.5V108.215C32.5 107.938 32.2761 107.715 32 107.715Z" fill="#DADEE3"/>
  <path 
    fill-rule="evenodd" clip-rule="evenodd" d="M10.779 64.9835C10.916 65.2232 10.8327 65.5286 10.593 65.6657L8.75965 66.7133C7.98072 67.1584 7.5 67.9867 7.5 68.8839V70.9747C7.5 71.2508 7.27614 71.4747 7 71.4747C6.72386 71.4747 6.5 71.2508 6.5 70.9747V68.8839C6.5 67.6279 7.173 66.4682 8.26351 65.845L10.0968 64.7974C10.3366 64.6604 10.642 64.7437 10.779 64.9835ZM7 74.6563C7.27614 74.6563 7.5 74.8801 7.5 75.1563V79.3378C7.5 79.614 7.27614 79.8378 7 79.8378C6.72386 79.8378 6.5 79.614 6.5 79.3378V75.1563C6.5 74.8801 6.72386 74.6563 7 74.6563ZM7 83.0194C7.27614 83.0194 7.5 83.2433 7.5 83.5194V87.701C7.5 87.9771 7.27614 88.201 7 88.201C6.72386 88.201 6.5 87.9771 6.5 87.701V83.5194C6.5 83.2433 6.72386 83.0194 7 83.0194ZM57 91.2375C57.2761 91.2375 57.5 91.4614 57.5 91.7375V93.9734C57.5 95.2294 56.827 96.3891 55.7365 97.0122L53.9032 98.0598C53.6634 98.1968 53.358 98.1135 53.221 97.8738C53.084 97.634 53.1673 97.3286 53.407 97.1916L55.2403 96.144C56.0193 95.6989 56.5 94.8705 56.5 93.9734V91.7375C56.5 91.4614 56.7239 91.2375 57 91.2375ZM7 91.3826C7.27614 91.3826 7.5 91.6064 7.5 91.8826V93.9734C7.5 94.8705 7.98072 95.6989 8.75965 96.144L10.593 97.1916C10.8327 97.3286 10.916 97.634 10.779 97.8738C10.642 98.1135 10.3366 98.1968 10.0968 98.0598L8.26351 97.0122C7.173 96.3891 6.5 95.2294 6.5 93.9734V91.8826C6.5 91.6064 6.72386 91.3826 7 91.3826ZM13.5775 99.4729C13.7145 99.2331 14.0199 99.1498 14.2597 99.2868L17.9263 101.382C18.1661 101.519 18.2494 101.825 18.1124 102.064C17.9754 102.304 17.6699 102.387 17.4302 102.25L13.7635 100.155C13.5238 100.018 13.4405 99.7126 13.5775 99.4729ZM50.4225 99.4729C50.5595 99.7126 50.4762 100.018 50.2365 100.155L46.5698 102.25C46.3301 102.387 46.0246 102.304 45.8876 102.064C45.7506 101.825 45.8339 101.519 46.0737 101.382L49.7403 99.2868C49.9801 99.1498 50.2855 99.2331 50.4225 99.4729ZM20.9108 103.663C21.0478 103.424 21.3532 103.34 21.593 103.477L25.2597 105.573C25.4994 105.71 25.5827 106.015 25.4457 106.255C25.3087 106.494 25.0033 106.578 24.7635 106.441L21.0968 104.346C20.8571 104.209 20.7738 103.903 20.9108 103.663ZM43.0892 103.663C43.2262 103.903 43.1429 104.209 42.9032 104.346L39.2365 106.441C38.9967 106.578 38.6913 106.494 38.5543 106.255C38.4173 106.015 38.5006 105.71 38.7403 105.573L42.407 103.477C42.6468 103.34 42.9522 103.424 43.0892 103.663ZM28.2441 107.854C28.3811 107.614 28.6866 107.531 28.9263 107.668L30.7597 108.715C31.5282 109.155 32.4718 109.155 33.2403 108.715L35.0737 107.668C35.3134 107.531 35.6189 107.614 35.7559 107.854C35.8929 108.094 35.8096 108.399 35.5698 108.536L33.7365 109.584C32.6605 110.199 31.3395 110.199 30.2635 109.584L28.4302 108.536C28.1904 108.399 28.1071 108.094 28.2441 107.854Z" fill="#DADEE3"/>
  <path 
    d="M32 23.9998L7 38.2855L32 52.5712L57 38.2855L32 23.9998Z" fill="white"/>
  <path 
    d="M32 52.5713L7 66.857L32 81.1427L57 66.857L32 52.5713Z" fill="white"/>
  <path 
    d="M7 38.2856V66.8571L32 81.1428V52.5714L7 38.2856Z" fill="#EBEEF2"/>
  <path 
    d="M57 38.2856V66.8571L32 81.1428V52.5714L57 38.2856Z" fill="#F4F6F9"/>
  <path 
    fill-rule="evenodd" clip-rule="evenodd" d="M33.2403 25.2847C32.4718 24.8455 31.5282 24.8455 30.7597 25.2847L8.75965 37.8561C7.98072 38.3012 7.5 39.1296 7.5 40.0268V65.1162C7.5 66.0134 7.98072 66.8417 8.75965 67.2868L30.7597 79.8583C31.5282 80.2975 32.4718 80.2975 33.2403 79.8583L56.5 66.567V40.0268C56.5 39.1296 56.0193 38.3012 55.2403 37.8561L33.2403 25.2847ZM30.2635 24.4165C31.3395 23.8016 32.6605 23.8016 33.7365 24.4165L55.7365 36.9879C56.827 37.611 57.5 38.7708 57.5 40.0268V66.8572L57.2481 67.2913L33.7365 80.7265C32.6605 81.3414 31.3395 81.3414 30.2635 80.7265L8.26351 68.1551C7.173 67.5319 6.5 66.3722 6.5 65.1162V40.0268C6.5 38.7708 7.173 37.611 8.26351 36.9879L30.2635 24.4165Z" fill="#DADEE3"/>
  <path 
    d="M82 52.8569L57 67.1426L82 81.4284L107 67.1426L82 52.8569Z" fill="white"/>
  <path 
    d="M82 81.4285L57 95.7142L82 110L107 95.7142L82 81.4285Z" fill="white"/>
  <path 
    d="M57 67.1426V95.714L82 110V81.4283L57 67.1426Z" fill="#EBEEF2"/>
  <path 
    d="M107 67.1426V95.714L82 110V81.4283L107 67.1426Z" fill="#F4F6F9"/>
  <path 
    fill-rule="evenodd" clip-rule="evenodd" d="M83.2403 54.1409C82.4718 53.7017 81.5282 53.7017 80.7597 54.1409L57.5 67.4321V93.9724C57.5 94.8696 57.9807 95.6979 58.7597 96.1431L80.7597 108.714C81.5282 109.154 82.4718 109.154 83.2403 108.714L105.24 96.1431C106.019 95.6979 106.5 94.8696 106.5 93.9724V68.883C106.5 67.9858 106.019 67.1575 105.24 66.7123L83.2403 54.1409ZM80.2635 53.2727C81.3395 52.6578 82.6605 52.6578 83.7365 53.2727L105.736 65.8441C106.827 66.4673 107.5 67.627 107.5 68.883V93.9724C107.5 95.2284 106.827 96.3881 105.736 97.0113L83.7365 109.583C82.6605 110.198 81.3395 110.198 80.2635 109.583L58.2635 97.0113C57.173 96.3881 56.5 95.2284 56.5 93.9724V67.142L56.7519 66.7079L80.2635 53.2727Z" fill="#DADEE3"/>
  <path 
    fill-rule="evenodd" clip-rule="evenodd" d="M94.7481 46.4314C94.5944 46.3435 94.4056 46.3435 94.2519 46.4314L92.3366 47.5259C92.0968 47.6629 91.7914 47.5796 91.6544 47.3398C91.5174 47.1001 91.6007 46.7946 91.8404 46.6576L93.7558 45.5631C94.2169 45.2996 94.7831 45.2996 95.2442 45.5631L97.1596 46.6576C97.3993 46.7946 97.4826 47.1001 97.3456 47.3398C97.2086 47.5796 96.9032 47.6629 96.6634 47.5259L94.7481 46.4314ZM100.308 49.0327C100.445 48.7929 100.751 48.7096 100.99 48.8466L104.821 51.0356C105.061 51.1726 105.144 51.4781 105.007 51.7178C104.87 51.9576 104.565 52.0409 104.325 51.9039L100.494 49.7149C100.254 49.5779 100.171 49.2724 100.308 49.0327ZM88.6919 49.0327C88.8289 49.2724 88.7456 49.5779 88.5058 49.7149L84.6751 51.9039C84.4353 52.0409 84.1299 51.9576 83.9929 51.7178C83.8559 51.4781 83.9392 51.1726 84.1789 51.0356L88.0097 48.8466C88.2494 48.7096 88.5549 48.7929 88.6919 49.0327ZM107.97 53.4107C108.107 53.1709 108.412 53.0876 108.652 53.2246L112.483 55.4136C112.722 55.5506 112.806 55.856 112.669 56.0958C112.532 56.3356 112.226 56.4189 111.986 56.2819L108.156 54.0929C107.916 53.9559 107.833 53.6504 107.97 53.4107ZM115.631 57.7887C115.768 57.5489 116.074 57.4656 116.313 57.6026L118.229 58.6971C119.236 59.2729 119.236 60.726 118.229 61.3018L116.313 62.3963C116.074 62.5333 115.768 62.45 115.631 62.2103C115.494 61.9705 115.577 61.6651 115.817 61.5281L117.733 60.4336C118.068 60.2416 118.068 59.7573 117.733 59.5653L115.817 58.4708C115.577 58.3338 115.494 58.0284 115.631 57.7887ZM73.3689 57.7887C73.5059 58.0284 73.4226 58.3338 73.1829 58.4708L71.2675 59.5653C70.9316 59.7573 70.9316 60.2416 71.2675 60.4336L73.1829 61.5281C73.4226 61.6651 73.5059 61.9705 73.3689 62.2103C73.2319 62.45 72.9265 62.5333 72.6867 62.3963L70.7714 61.3018C69.7636 60.726 69.7636 59.2729 70.7714 58.6971L72.6867 57.6026C72.9265 57.4656 73.2319 57.5489 73.3689 57.7887ZM112.669 63.9031C112.806 64.1429 112.722 64.4483 112.483 64.5853L108.652 66.7743C108.412 66.9113 108.107 66.828 107.97 66.5883C107.833 66.3485 107.916 66.0431 108.156 65.9061L111.986 63.7171C112.226 63.5801 112.532 63.6634 112.669 63.9031ZM76.3314 63.9031C76.4684 63.6634 76.7738 63.5801 77.0136 63.7171L80.8443 65.9061C81.0841 66.0431 81.1674 66.3485 81.0304 66.5883C80.8934 66.828 80.588 66.9113 80.3482 66.7743L76.5175 64.5853C76.2777 64.4483 76.1944 64.1429 76.3314 63.9031ZM105.007 68.2811C105.144 68.5209 105.061 68.8263 104.821 68.9633L100.99 71.1523C100.751 71.2893 100.445 71.206 100.308 70.9663C100.171 70.7265 100.254 70.4211 100.494 70.2841L104.325 68.0951C104.565 67.9581 104.87 68.0414 105.007 68.2811ZM83.9929 68.2811C84.1299 68.0414 84.4353 67.9581 84.6751 68.0951L88.5058 70.2841C88.7456 70.4211 88.8289 70.7265 88.6919 70.9663C88.5549 71.206 88.2494 71.2893 88.0097 71.1523L84.1789 68.9633C83.9392 68.8263 83.8559 68.5209 83.9929 68.2811ZM91.6544 72.6591C91.7914 72.4193 92.0968 72.3361 92.3366 72.4731L94.2519 73.5676C94.4056 73.6554 94.5944 73.6554 94.7481 73.5676L96.6634 72.4731C96.9032 72.3361 97.2086 72.4193 97.3456 72.6591C97.4826 72.8989 97.3993 73.2043 97.1596 73.3413L95.2442 74.4358C94.7831 74.6993 94.2169 74.6993 93.7558 74.4358L91.8404 73.3413C91.6007 73.2043 91.5174 72.8989 91.6544 72.6591Z" fill="#DADEE3"/>
  <path 
    fill-rule="evenodd" clip-rule="evenodd" d="M70.8144 32.755L69.2519 31.8622L69.7481 30.9939L71.3106 31.8868C71.5503 32.0238 71.6336 32.3292 71.4966 32.569C71.3596 32.8087 71.0542 32.892 70.8144 32.755ZM73.7534 33.8585C73.8904 33.6188 74.1958 33.5355 74.4356 33.6725L77.5606 35.4582C77.8003 35.5952 77.8836 35.9006 77.7466 36.1404C77.6096 36.3802 77.3042 36.4635 77.0644 36.3264L73.9394 34.5407C73.6997 34.4037 73.6164 34.0983 73.7534 33.8585ZM80.0034 37.43C80.1404 37.1902 80.4458 37.1069 80.6856 37.2439L83.8106 39.0296C84.0503 39.1666 84.1336 39.4721 83.9966 39.7118C83.8596 39.9516 83.5542 40.0349 83.3144 39.8979L80.1894 38.1122C79.9497 37.9752 79.8664 37.6697 80.0034 37.43ZM86.2534 41.0014C86.3904 40.7616 86.6958 40.6783 86.9356 40.8153L90.0606 42.6011C90.3003 42.7381 90.3836 43.0435 90.2466 43.2832C90.1096 43.523 89.8042 43.6063 89.5644 43.4693L86.4394 41.6836C86.1997 41.5466 86.1164 41.2412 86.2534 41.0014ZM92.5034 44.5728C92.6404 44.3331 92.9458 44.2498 93.1856 44.3868L94.7481 45.2796L95 45.7138V47.4995C95 47.7756 94.7761 47.9995 94.5 47.9995C94.2239 47.9995 94 47.7756 94 47.4995V46.0039L92.6894 45.255C92.4497 45.118 92.3664 44.8126 92.5034 44.5728ZM94.5 50.5709C94.7761 50.5709 95 50.7948 95 51.0709V54.6423C95 54.9185 94.7761 55.1423 94.5 55.1423C94.2239 55.1423 94 54.9185 94 54.6423V51.0709C94 50.7948 94.2239 50.5709 94.5 50.5709ZM94.5 57.7138C94.7761 57.7138 95 57.9376 95 58.2138V61.7852C95 62.0613 94.7761 62.2852 94.5 62.2852C94.2239 62.2852 94 62.0613 94 61.7852V58.2138C94 57.9376 94.2239 57.7138 94.5 57.7138ZM94.5 64.8566C94.7761 64.8566 95 65.0805 95 65.3566V68.928C95 69.2042 94.7761 69.428 94.5 69.428C94.2239 69.428 94 69.2042 94 68.928V65.3566C94 65.0805 94.2239 64.8566 94.5 64.8566ZM94.5 71.9995C94.7761 71.9995 95 72.2233 95 72.4995V74.2852H94V72.4995C94 72.2233 94.2239 71.9995 94.5 71.9995Z" fill="#DADEE3"/>
  <path 
    fill-rule="evenodd" clip-rule="evenodd" d="M118.186 32.755L119.748 31.8622L119.252 30.9939L117.689 31.8868C117.45 32.0238 117.366 32.3292 117.503 32.569C117.64 32.8087 117.946 32.892 118.186 32.755ZM115.247 33.8585C115.11 33.6188 114.804 33.5355 114.564 33.6725L111.439 35.4582C111.2 35.5952 111.116 35.9006 111.253 36.1404C111.39 36.3802 111.696 36.4635 111.936 36.3264L115.061 34.5407C115.3 34.4037 115.384 34.0983 115.247 33.8585ZM108.997 37.43C108.86 37.1902 108.554 37.1069 108.314 37.2439L105.189 39.0296C104.95 39.1666 104.866 39.4721 105.003 39.7118C105.14 39.9516 105.446 40.0349 105.686 39.8979L108.811 38.1122C109.05 37.9752 109.134 37.6697 108.997 37.43ZM102.747 41.0014C102.61 40.7616 102.304 40.6783 102.064 40.8153L98.9394 42.6011C98.6997 42.7381 98.6164 43.0435 98.7534 43.2832C98.8904 43.523 99.1958 43.6063 99.4356 43.4693L102.561 41.6836C102.8 41.5466 102.884 41.2412 102.747 41.0014ZM96.4966 44.5728C96.3596 44.3331 96.0542 44.2498 95.8144 44.3868L94.2519 45.2796L94 45.7138V47.4995C94 47.7756 94.2239 47.9995 94.5 47.9995C94.7761 47.9995 95 47.7756 95 47.4995V46.0039L96.3106 45.255C96.5503 45.118 96.6336 44.8126 96.4966 44.5728ZM94.5 50.5709C94.2239 50.5709 94 50.7948 94 51.0709V54.6423C94 54.9185 94.2239 55.1423 94.5 55.1423C94.7761 55.1423 95 54.9185 95 54.6423V51.0709C95 50.7948 94.7761 50.5709 94.5 50.5709ZM94.5 57.7138C94.2239 57.7138 94 57.9376 94 58.2138V61.7852C94 62.0613 94.2239 62.2852 94.5 62.2852C94.7761 62.2852 95 62.0613 95 61.7852V58.2138C95 57.9376 94.7761 57.7138 94.5 57.7138ZM94.5 64.8566C94.2239 64.8566 94 65.0805 94 65.3566V68.928C94 69.2042 94.2239 69.428 94.5 69.428C94.7761 69.428 95 69.2042 95 68.928V65.3566C95 65.0805 94.7761 64.8566 94.5 64.8566ZM94.5 71.9995C94.2239 71.9995 94 72.2233 94 72.4995V74.2852H95V72.4995C95 72.2233 94.7761 71.9995 94.5 71.9995Z" fill="#DADEE3"/>
  <path 
    fill-rule="evenodd" clip-rule="evenodd" d="M95.7403 18.427C94.9718 17.9879 94.0282 17.9879 93.2597 18.427L91.4263 19.4747C91.1866 19.6117 90.8811 19.5284 90.7441 19.2886C90.6071 19.0489 90.6904 18.7434 90.9302 18.6064L92.7635 17.5588C93.8395 16.9439 95.1605 16.9439 96.2365 17.5588L98.0698 18.6064C98.3096 18.7434 98.3929 19.0489 98.2559 19.2886C98.1189 19.5284 97.8134 19.6117 97.5737 19.4747L95.7403 18.427ZM87.9457 20.8877C88.0827 21.1275 87.9994 21.4329 87.7597 21.5699L84.093 23.6651C83.8532 23.8021 83.5478 23.7189 83.4108 23.4791C83.2738 23.2393 83.3571 22.9339 83.5968 22.7969L87.2635 20.7017C87.5033 20.5647 87.8087 20.648 87.9457 20.8877ZM101.054 20.8877C101.191 20.648 101.497 20.5647 101.736 20.7017L105.403 22.7969C105.643 22.9339 105.726 23.2393 105.589 23.4791C105.452 23.7189 105.147 23.8021 104.907 23.6651L101.24 21.5699C101.001 21.4329 100.917 21.1275 101.054 20.8877ZM80.6124 25.0782C80.7494 25.3179 80.6661 25.6234 80.4263 25.7604L76.7597 27.8556C76.5199 27.9926 76.2145 27.9093 76.0775 27.6696C75.9405 27.4298 76.0238 27.1244 76.2635 26.9874L79.9302 24.8921C80.1699 24.7551 80.4754 24.8384 80.6124 25.0782ZM108.388 25.0782C108.525 24.8384 108.83 24.7551 109.07 24.8921L112.736 26.9874C112.976 27.1244 113.06 27.4298 112.923 27.6696C112.786 27.9093 112.48 27.9926 112.24 27.8556L108.574 25.7604C108.334 25.6234 108.251 25.3179 108.388 25.0782ZM73.279 29.2687C73.416 29.5084 73.3327 29.8139 73.093 29.9509L71.2597 30.9985C70.4807 31.4436 70 32.2719 70 33.1691V35.2599C70 35.536 69.7761 35.7599 69.5 35.7599C69.2239 35.7599 69 35.536 69 35.2599V33.1691C69 31.9131 69.673 30.7534 70.7635 30.1302L72.5968 29.0826C72.8366 28.9456 73.142 29.0289 73.279 29.2687ZM115.721 29.2687C115.858 29.0289 116.163 28.9456 116.403 29.0826L118.236 30.1302C119.327 30.7534 120 31.9131 120 33.1691V35.2599C120 35.536 119.776 35.7599 119.5 35.7599C119.224 35.7599 119 35.536 119 35.2599V33.1691C119 32.2719 118.519 31.4436 117.74 30.9985L115.907 29.9509C115.667 29.8139 115.584 29.5084 115.721 29.2687ZM69.5 38.9415C69.7761 38.9415 70 39.1653 70 39.4415V43.623C70 43.8992 69.7761 44.123 69.5 44.123C69.2239 44.123 69 43.8992 69 43.623V39.4415C69 39.1653 69.2239 38.9415 69.5 38.9415ZM119.5 38.9415C119.776 38.9415 120 39.1653 120 39.4415V43.623C120 43.8992 119.776 44.123 119.5 44.123C119.224 44.123 119 43.8992 119 43.623V39.4415C119 39.1653 119.224 38.9415 119.5 38.9415ZM119.5 47.3046C119.776 47.3046 120 47.5285 120 47.8046V51.9862C120 52.2623 119.776 52.4862 119.5 52.4862C119.224 52.4862 119 52.2623 119 51.9862V47.8046C119 47.5285 119.224 47.3046 119.5 47.3046ZM69.5 47.3046C69.7761 47.3046 70 47.5285 70 47.8046V51.9862C70 52.2623 69.7761 52.4862 69.5 52.4862C69.2239 52.4862 69 52.2623 69 51.9862V47.8046C69 47.5285 69.2239 47.3046 69.5 47.3046ZM69.5 55.6678C69.7761 55.6678 70 55.8916 70 56.1678V58.2586C70 59.1557 70.4807 59.9841 71.2597 60.4292L73.093 61.4768C73.3327 61.6138 73.416 61.9192 73.279 62.159C73.142 62.3988 72.8366 62.482 72.5968 62.345L70.7635 61.2974C69.673 60.6743 69 59.5146 69 58.2586V56.1678C69 55.8916 69.2239 55.6678 69.5 55.6678ZM119.5 55.6678C119.776 55.6678 120 55.8916 120 56.1678V58.2586C120 59.5146 119.327 60.6743 118.236 61.2974L116.403 62.345C116.163 62.482 115.858 62.3988 115.721 62.159C115.584 61.9192 115.667 61.6138 115.907 61.4768L117.74 60.4292C118.519 59.9841 119 59.1557 119 58.2586V56.1678C119 55.8916 119.224 55.6678 119.5 55.6678ZM76.0775 63.7581C76.2145 63.5183 76.5199 63.435 76.7597 63.572L80.4263 65.6673C80.6661 65.8043 80.7494 66.1097 80.6124 66.3495C80.4754 66.5892 80.1699 66.6725 79.9302 66.5355L76.2635 64.4403C76.0238 64.3033 75.9405 63.9978 76.0775 63.7581ZM112.923 63.7581C113.06 63.9978 112.976 64.3033 112.736 64.4403L109.07 66.5355C108.83 66.6725 108.525 66.5892 108.388 66.3495C108.251 66.1097 108.334 65.8043 108.574 65.6673L112.24 63.572C112.48 63.435 112.786 63.5183 112.923 63.7581ZM83.4108 67.9486C83.5478 67.7088 83.8532 67.6255 84.093 67.7625L87.7597 69.8578C87.9994 69.9948 88.0827 70.3002 87.9457 70.5399C87.8087 70.7797 87.5033 70.863 87.2635 70.726L83.5968 68.6308C83.3571 68.4938 83.2738 68.1883 83.4108 67.9486ZM105.589 67.9486C105.726 68.1883 105.643 68.4938 105.403 68.6308L101.736 70.726C101.497 70.863 101.191 70.7797 101.054 70.5399C100.917 70.3002 101.001 69.9948 101.24 69.8578L104.907 67.7625C105.147 67.6255 105.452 67.7088 105.589 67.9486ZM90.7441 72.139C90.8811 71.8993 91.1866 71.816 91.4263 71.953L93.2597 73.0006C94.0282 73.4398 94.9718 73.4398 95.7403 73.0006L97.5737 71.953C97.8134 71.816 98.1189 71.8993 98.2559 72.139C98.3929 72.3788 98.3096 72.6842 98.0698 72.8212L96.2365 73.8689C95.1605 74.4837 93.8395 74.4837 92.7635 73.8689L90.9302 72.8212C90.6904 72.6842 90.6071 72.3788 90.7441 72.139Z" fill="#DADEE3"/>
</svg>
