<svg width="506" height="258" viewBox="0 0 506 258" fill="none" xmlns="http://www.w3.org/2000/svg">
<g opacity="0.1" clip-path="url(#clip0_2569_18188)">
<path d="M323 65L295 1" stroke="#46A8E0"/>
<path d="M323 129L295 65" stroke="#46A8E0"/>
<path d="M99 65L71 1" stroke="#46A8E0"/>
<path d="M99 129L71 65" stroke="#46A8E0"/>
<path d="M435 65L407 1" stroke="#46A8E0"/>
<path d="M435 129L407 65" stroke="#46A8E0"/>
<path d="M211 65L183 1" stroke="#46A8E0"/>
<path d="M211 129L183 65" stroke="#46A8E0"/>
<path d="M267 65L239 1" stroke="#46A8E0"/>
<path d="M267 129L239 65" stroke="#46A8E0"/>
<path d="M43 65L15 1" stroke="#46A8E0"/>
<path d="M29 65L1 1" stroke="#46A8E0"/>
<path d="M43 129L15 65" stroke="#46A8E0"/>
<path d="M379 65L351 1" stroke="#46A8E0"/>
<path d="M379 129L351 65" stroke="#46A8E0"/>
<path d="M155 65L127 1" stroke="#46A8E0"/>
<path d="M155 129L127 65" stroke="#46A8E0"/>
<path d="M351 65L323 1" stroke="#46A8E0"/>
<path d="M351 129L323 65" stroke="#46A8E0"/>
<path d="M127 65L99 1" stroke="#46A8E0"/>
<path d="M127 129L99 65" stroke="#46A8E0"/>
<path d="M463 65L435 1" stroke="#46A8E0"/>
<path d="M463 129L435 65" stroke="#46A8E0"/>
<path d="M239 65L211 1" stroke="#46A8E0"/>
<path d="M239 129L211 65" stroke="#46A8E0"/>
<path d="M295 65L267 1" stroke="#46A8E0"/>
<path d="M295 129L267 65" stroke="#46A8E0"/>
<path d="M71 65L43 1" stroke="#46A8E0"/>
<path d="M71 129L43 65" stroke="#46A8E0"/>
<path d="M407 65L379 1" stroke="#46A8E0"/>
<path d="M407 129L379 65" stroke="#46A8E0"/>
<path d="M183 65L155 1" stroke="#46A8E0"/>
<path d="M183 129L155 65" stroke="#46A8E0"/>
<path d="M337 65L309 1" stroke="#46A8E0"/>
<path d="M337 129L309 65" stroke="#46A8E0"/>
<path d="M113 65L85 1" stroke="#46A8E0"/>
<path d="M113 129L85 65" stroke="#46A8E0"/>
<path d="M449 65L421 1" stroke="#46A8E0"/>
<path d="M449 129L421 65" stroke="#46A8E0"/>
<path d="M225 65L197 1" stroke="#46A8E0"/>
<path d="M225 129L197 65" stroke="#46A8E0"/>
<path d="M281 65L253 1" stroke="#46A8E0"/>
<path d="M281 129L253 65" stroke="#46A8E0"/>
<path d="M57 65L29 1" stroke="#46A8E0"/>
<path d="M43 65L15 1" stroke="#46A8E0"/>
<path d="M57 129L29 65" stroke="#46A8E0"/>
<path d="M393 65L365 1" stroke="#46A8E0"/>
<path d="M393 129L365 65" stroke="#46A8E0"/>
<path d="M169 65L141 1" stroke="#46A8E0"/>
<path d="M169 129L141 65" stroke="#46A8E0"/>
<path d="M365 65L337 1" stroke="#46A8E0"/>
<path d="M365 129L337 65" stroke="#46A8E0"/>
<path d="M141 65L113 1" stroke="#46A8E0"/>
<path d="M141 129L113 65" stroke="#46A8E0"/>
<path d="M477 65L449 1" stroke="#46A8E0"/>
<path d="M477 129L449 65" stroke="#46A8E0"/>
<path d="M253 65L225 1" stroke="#46A8E0"/>
<path d="M253 129L225 65" stroke="#46A8E0"/>
<path d="M309 65L281 1" stroke="#46A8E0"/>
<path d="M309 129L281 65" stroke="#46A8E0"/>
<path d="M85 65L57 1" stroke="#46A8E0"/>
<path d="M85 129L57 65" stroke="#46A8E0"/>
<path d="M421 65L393 1" stroke="#46A8E0"/>
<path d="M421 129L393 65" stroke="#46A8E0"/>
<path d="M197 65L169 1" stroke="#46A8E0"/>
<path d="M197 129L169 65" stroke="#46A8E0"/>
<path d="M337 65L309 1" stroke="#46A8E0"/>
<path d="M337 129L309 65" stroke="#46A8E0"/>
<path d="M113 65L85 1" stroke="#46A8E0"/>
<path d="M113 129L85 65" stroke="#46A8E0"/>
<path d="M449 65L421 1" stroke="#46A8E0"/>
<path d="M449 129L421 65" stroke="#46A8E0"/>
<path d="M225 65L197 1" stroke="#46A8E0"/>
<path d="M225 129L197 65" stroke="#46A8E0"/>
<path d="M281 65L253 1" stroke="#46A8E0"/>
<path d="M281 129L253 65" stroke="#46A8E0"/>
<path d="M57 65L29 1" stroke="#46A8E0"/>
<path d="M43 65L15 1" stroke="#46A8E0"/>
<path d="M57 129L29 65" stroke="#46A8E0"/>
<path d="M393 65L365 1" stroke="#46A8E0"/>
<path d="M393 129L365 65" stroke="#46A8E0"/>
<path d="M169 65L141 1" stroke="#46A8E0"/>
<path d="M169 129L141 65" stroke="#46A8E0"/>
<path d="M365 65L337 1" stroke="#46A8E0"/>
<path d="M365 129L337 65" stroke="#46A8E0"/>
<path d="M141 65L113 1" stroke="#46A8E0"/>
<path d="M141 129L113 65" stroke="#46A8E0"/>
<path d="M477 65L449 1" stroke="#46A8E0"/>
<path d="M477 129L449 65" stroke="#46A8E0"/>
<path d="M253 65L225 1" stroke="#46A8E0"/>
<path d="M253 129L225 65" stroke="#46A8E0"/>
<path d="M309 65L281 1" stroke="#46A8E0"/>
<path d="M309 129L281 65" stroke="#46A8E0"/>
<path d="M85 65L57 1" stroke="#46A8E0"/>
<path d="M85 129L57 65" stroke="#46A8E0"/>
<path d="M421 65L393 1" stroke="#46A8E0"/>
<path d="M421 129L393 65" stroke="#46A8E0"/>
<path d="M197 65L169 1" stroke="#46A8E0"/>
<path d="M197 129L169 65" stroke="#46A8E0"/>
<path d="M351 65L323 1" stroke="#46A8E0"/>
<path d="M351 129L323 65" stroke="#46A8E0"/>
<path d="M127 65L99 1" stroke="#46A8E0"/>
<path d="M127 129L99 65" stroke="#46A8E0"/>
<path d="M463 65L435 1" stroke="#46A8E0"/>
<path d="M463 129L435 65" stroke="#46A8E0"/>
<path d="M239 65L211 1" stroke="#46A8E0"/>
<path d="M239 129L211 65" stroke="#46A8E0"/>
<path d="M295 65L267 1" stroke="#46A8E0"/>
<path d="M295 129L267 65" stroke="#46A8E0"/>
<path d="M71 65L43 1" stroke="#46A8E0"/>
<path d="M71 129L43 65" stroke="#46A8E0"/>
<path d="M407 65L379 1" stroke="#46A8E0"/>
<path d="M407 129L379 65" stroke="#46A8E0"/>
<path d="M183 65L155 1" stroke="#46A8E0"/>
<path d="M183 129L155 65" stroke="#46A8E0"/>
<path d="M379 65L351 1" stroke="#46A8E0"/>
<path d="M379 129L351 65" stroke="#46A8E0"/>
<path d="M155 65L127 1" stroke="#46A8E0"/>
<path d="M155 129L127 65" stroke="#46A8E0"/>
<path d="M491 65L463 1" stroke="#46A8E0"/>
<path d="M505 65L477 1" stroke="#46A8E0"/>
<path d="M505 97L477 33" stroke="#46A8E0"/>
<path d="M491 33L477 1" stroke="#46A8E0"/>
<path d="M505 33L491 1" stroke="#46A8E0"/>
<path d="M491 129L463 65" stroke="#46A8E0"/>
<path d="M491 161L463 97" stroke="#46A8E0"/>
<path d="M505 129L477 65" stroke="#46A8E0"/>
<path d="M505 161L477 97" stroke="#46A8E0"/>
<path d="M505 193L477 129" stroke="#46A8E0"/>
<path d="M505 225L477 161" stroke="#46A8E0"/>
<path d="M267 65L239 1" stroke="#46A8E0"/>
<path d="M267 129L239 65" stroke="#46A8E0"/>
<path d="M323 65L295 1" stroke="#46A8E0"/>
<path d="M323 129L295 65" stroke="#46A8E0"/>
<path d="M99 65L71 1" stroke="#46A8E0"/>
<path d="M99 129L71 65" stroke="#46A8E0"/>
<path d="M435 65L407 1" stroke="#46A8E0"/>
<path d="M435 129L407 65" stroke="#46A8E0"/>
<path d="M211 65L183 1" stroke="#46A8E0"/>
<path d="M211 129L183 65" stroke="#46A8E0"/>
<path d="M323 193L295 129" stroke="#46A8E0"/>
<path d="M323 257L295 193" stroke="#46A8E0"/>
<path d="M99 193L71 129" stroke="#46A8E0"/>
<path d="M99 257L71 193" stroke="#46A8E0"/>
<path d="M435 193L407 129" stroke="#46A8E0"/>
<path d="M435 257L407 193" stroke="#46A8E0"/>
<path d="M211 193L183 129" stroke="#46A8E0"/>
<path d="M211 257L183 193" stroke="#46A8E0"/>
<path d="M267 193L239 129" stroke="#46A8E0"/>
<path d="M267 257L239 193" stroke="#46A8E0"/>
<path d="M43 193L15 129" stroke="#46A8E0"/>
<path d="M29 193L1 129" stroke="#46A8E0"/>
<path d="M29 225L1 161" stroke="#46A8E0"/>
<path d="M29 257L1 193" stroke="#46A8E0"/>
<path d="M15 257L1 225" stroke="#46A8E0"/>
<path d="M29 161L1 97" stroke="#46A8E0"/>
<path d="M29 129L1 65" stroke="#46A8E0"/>
<path d="M29 97L1 33" stroke="#46A8E0"/>
<path d="M43 257L15 193" stroke="#46A8E0"/>
<path d="M379 193L351 129" stroke="#46A8E0"/>
<path d="M379 257L351 193" stroke="#46A8E0"/>
<path d="M155 193L127 129" stroke="#46A8E0"/>
<path d="M155 257L127 193" stroke="#46A8E0"/>
<path d="M351 193L323 129" stroke="#46A8E0"/>
<path d="M351 257L323 193" stroke="#46A8E0"/>
<path d="M127 193L99 129" stroke="#46A8E0"/>
<path d="M127 257L99 193" stroke="#46A8E0"/>
<path d="M463 193L435 129" stroke="#46A8E0"/>
<path d="M463 257L435 193" stroke="#46A8E0"/>
<path d="M239 193L211 129" stroke="#46A8E0"/>
<path d="M239 257L211 193" stroke="#46A8E0"/>
<path d="M295 193L267 129" stroke="#46A8E0"/>
<path d="M295 257L267 193" stroke="#46A8E0"/>
<path d="M71 193L43 129" stroke="#46A8E0"/>
<path d="M71 257L43 193" stroke="#46A8E0"/>
<path d="M407 193L379 129" stroke="#46A8E0"/>
<path d="M407 257L379 193" stroke="#46A8E0"/>
<path d="M183 193L155 129" stroke="#46A8E0"/>
<path d="M183 257L155 193" stroke="#46A8E0"/>
<path d="M337 193L309 129" stroke="#46A8E0"/>
<path d="M337 257L309 193" stroke="#46A8E0"/>
<path d="M113 193L85 129" stroke="#46A8E0"/>
<path d="M113 257L85 193" stroke="#46A8E0"/>
<path d="M449 193L421 129" stroke="#46A8E0"/>
<path d="M449 257L421 193" stroke="#46A8E0"/>
<path d="M225 193L197 129" stroke="#46A8E0"/>
<path d="M225 257L197 193" stroke="#46A8E0"/>
<path d="M281 193L253 129" stroke="#46A8E0"/>
<path d="M281 257L253 193" stroke="#46A8E0"/>
<path d="M57 193L29 129" stroke="#46A8E0"/>
<path d="M43 193L15 129" stroke="#46A8E0"/>
<path d="M57 257L29 193" stroke="#46A8E0"/>
<path d="M393 193L365 129" stroke="#46A8E0"/>
<path d="M393 257L365 193" stroke="#46A8E0"/>
<path d="M169 193L141 129" stroke="#46A8E0"/>
<path d="M169 257L141 193" stroke="#46A8E0"/>
<path d="M365 193L337 129" stroke="#46A8E0"/>
<path d="M365 257L337 193" stroke="#46A8E0"/>
<path d="M141 193L113 129" stroke="#46A8E0"/>
<path d="M141 257L113 193" stroke="#46A8E0"/>
<path d="M477 193L449 129" stroke="#46A8E0"/>
<path d="M477 257L449 193" stroke="#46A8E0"/>
<path d="M253 193L225 129" stroke="#46A8E0"/>
<path d="M253 257L225 193" stroke="#46A8E0"/>
<path d="M309 193L281 129" stroke="#46A8E0"/>
<path d="M309 257L281 193" stroke="#46A8E0"/>
<path d="M85 193L57 129" stroke="#46A8E0"/>
<path d="M85 257L57 193" stroke="#46A8E0"/>
<path d="M421 193L393 129" stroke="#46A8E0"/>
<path d="M421 257L393 193" stroke="#46A8E0"/>
<path d="M197 193L169 129" stroke="#46A8E0"/>
<path d="M197 257L169 193" stroke="#46A8E0"/>
<path d="M337 193L309 129" stroke="#46A8E0"/>
<path d="M337 257L309 193" stroke="#46A8E0"/>
<path d="M113 193L85 129" stroke="#46A8E0"/>
<path d="M113 257L85 193" stroke="#46A8E0"/>
<path d="M449 193L421 129" stroke="#46A8E0"/>
<path d="M449 257L421 193" stroke="#46A8E0"/>
<path d="M225 193L197 129" stroke="#46A8E0"/>
<path d="M225 257L197 193" stroke="#46A8E0"/>
<path d="M281 193L253 129" stroke="#46A8E0"/>
<path d="M281 257L253 193" stroke="#46A8E0"/>
<path d="M57 193L29 129" stroke="#46A8E0"/>
<path d="M43 193L15 129" stroke="#46A8E0"/>
<path d="M43 161L15 97" stroke="#46A8E0"/>
<path d="M57 257L29 193" stroke="#46A8E0"/>
<path d="M393 193L365 129" stroke="#46A8E0"/>
<path d="M393 257L365 193" stroke="#46A8E0"/>
<path d="M169 193L141 129" stroke="#46A8E0"/>
<path d="M169 257L141 193" stroke="#46A8E0"/>
<path d="M365 193L337 129" stroke="#46A8E0"/>
<path d="M365 257L337 193" stroke="#46A8E0"/>
<path d="M141 193L113 129" stroke="#46A8E0"/>
<path d="M141 257L113 193" stroke="#46A8E0"/>
<path d="M477 193L449 129" stroke="#46A8E0"/>
<path d="M477 257L449 193" stroke="#46A8E0"/>
<path d="M253 193L225 129" stroke="#46A8E0"/>
<path d="M253 257L225 193" stroke="#46A8E0"/>
<path d="M309 193L281 129" stroke="#46A8E0"/>
<path d="M309 257L281 193" stroke="#46A8E0"/>
<path d="M85 193L57 129" stroke="#46A8E0"/>
<path d="M85 257L57 193" stroke="#46A8E0"/>
<path d="M421 193L393 129" stroke="#46A8E0"/>
<path d="M421 257L393 193" stroke="#46A8E0"/>
<path d="M197 193L169 129" stroke="#46A8E0"/>
<path d="M197 257L169 193" stroke="#46A8E0"/>
<path d="M351 193L323 129" stroke="#46A8E0"/>
<path d="M351 257L323 193" stroke="#46A8E0"/>
<path d="M127 193L99 129" stroke="#46A8E0"/>
<path d="M127 257L99 193" stroke="#46A8E0"/>
<path d="M463 193L435 129" stroke="#46A8E0"/>
<path d="M463 257L435 193" stroke="#46A8E0"/>
<path d="M239 193L211 129" stroke="#46A8E0"/>
<path d="M239 257L211 193" stroke="#46A8E0"/>
<path d="M295 193L267 129" stroke="#46A8E0"/>
<path d="M295 257L267 193" stroke="#46A8E0"/>
<path d="M71 193L43 129" stroke="#46A8E0"/>
<path d="M71 257L43 193" stroke="#46A8E0"/>
<path d="M407 193L379 129" stroke="#46A8E0"/>
<path d="M407 257L379 193" stroke="#46A8E0"/>
<path d="M183 193L155 129" stroke="#46A8E0"/>
<path d="M183 257L155 193" stroke="#46A8E0"/>
<path d="M379 193L351 129" stroke="#46A8E0"/>
<path d="M379 257L351 193" stroke="#46A8E0"/>
<path d="M155 193L127 129" stroke="#46A8E0"/>
<path d="M155 257L127 193" stroke="#46A8E0"/>
<path d="M491 193L463 129" stroke="#46A8E0"/>
<path d="M491 257L463 193" stroke="#46A8E0"/>
<path d="M505 257L477 193" stroke="#46A8E0"/>
<path d="M267 193L239 129" stroke="#46A8E0"/>
<path d="M267 257L239 193" stroke="#46A8E0"/>
<path d="M323 193L295 129" stroke="#46A8E0"/>
<path d="M323 257L295 193" stroke="#46A8E0"/>
<path d="M99 193L71 129" stroke="#46A8E0"/>
<path d="M99 257L71 193" stroke="#46A8E0"/>
<path d="M435 193L407 129" stroke="#46A8E0"/>
<path d="M435 257L407 193" stroke="#46A8E0"/>
<path d="M211 193L183 129" stroke="#46A8E0"/>
<path d="M211 257L183 193" stroke="#46A8E0"/>
</g>
<defs>
<clipPath id="clip0_2569_18188">
<rect width="506" height="258" fill="white"/>
</clipPath>
</defs>
</svg>
